<svg width="154" height="28" viewBox="0 0 154 28" fill="none" xmlns="http://www.w3.org/2000/svg">
<g clip-path="url(#clip0_4301_8641)">
<path d="M134.148 26.7214L138.532 26.7214L138.532 18.5905C138.532 15.1549 140.351 12.5973 143.28 12.5973C145.884 12.5973 146.477 14.6968 146.477 16.6627L146.477 24.3737C146.477 26.0151 147.185 26.7214 148.832 26.7214H153.082L153.082 23.0186H151.684C151.187 23.0186 150.919 22.7323 150.919 22.2551L150.919 15.7847C150.919 10.8795 148.564 8.57002 144.735 8.57002C141.021 8.57002 139.145 10.7459 138.417 12.2537H138.379L138.379 11.3757C138.379 9.69613 137.632 8.98992 135.986 8.98992L131.984 8.98992L131.984 12.7309H133.382C133.918 12.7309 134.148 12.979 134.148 13.4944L134.148 26.7214ZM110.025 26.8931C110.829 26.8931 111.404 26.8168 111.404 26.8168L111.404 22.9231C111.404 22.9231 111.078 22.9995 110.6 22.9995C109.374 22.9995 107.096 22.5796 107.096 19.6784L107.096 12.5019H111.136L111.136 8.98992H107.096L107.096 3.56934H106.981L99.1511 12.3873V12.5019L102.616 12.5019L102.616 20.2319C102.616 26.1488 107.537 26.8931 110.025 26.8931ZM91.7995 27.1413C95.6667 27.1413 98.6533 25.0799 98.6533 21.7207C98.6533 15.4603 89.1766 16.3573 89.1766 13.5898C89.1766 12.54 90.2679 11.9865 91.8378 11.9865C92.929 11.9865 94.0777 12.2728 95.5902 13.4562L98.0407 10.8031C96.1836 8.95175 93.6565 8.58911 91.8569 8.58911C87.9897 8.58911 84.7925 10.1924 84.7925 13.7616C84.7925 19.5066 94.1734 19.1249 94.1734 21.9497C94.1734 23.1331 93.1588 23.7057 91.7803 23.7057C88.966 23.7057 87.1856 22.3696 86.1326 21.4725L83.7587 24.0492C85.2328 25.4807 87.4728 27.1413 91.7995 27.1413ZM77.6132 26.7214L81.7867 26.7214L81.7867 23.0186L80.4466 23.0186C79.9488 23.0186 79.6808 22.7323 79.6808 22.2551L79.6808 4.40915C79.6808 2.72953 78.9342 2.02332 77.2877 2.02332L73.0759 2.02332L73.0759 5.76429H74.4734C74.9712 5.76429 75.2392 6.01242 75.2392 6.52776L75.2392 24.3546C75.2584 26.0151 75.9667 26.7214 77.6132 26.7214ZM61.9527 23.3812C59.081 23.3812 56.6879 21.1481 56.6879 17.8461C56.6879 14.5823 59.081 12.311 61.9527 12.311C64.8244 12.311 67.2558 14.5823 67.2558 17.8461C67.2558 21.1481 64.8244 23.3812 61.9527 23.3812ZM61.9527 27.1413C67.3898 27.1413 71.7166 23.3239 71.7166 17.8652C71.7166 12.4446 67.3898 8.58911 61.9527 8.58911C56.5539 8.58911 52.2271 12.4446 52.2271 17.8652C52.2271 23.3239 56.5347 27.1413 61.9527 27.1413ZM40.9126 27.1413C46.254 27.1413 49.3746 23.8202 49.3746 19.8884C49.3746 11.7575 37.7154 12.5973 37.7154 8.39824C37.7154 6.81405 39.2661 5.74521 41.372 5.74521C43.1908 5.74521 44.7032 6.45141 46.5028 8.01651L49.4511 4.82905C47.6898 2.72953 44.3969 1.60342 41.4103 1.60342C36.605 1.60342 33.1206 4.54275 33.1206 8.57002C33.1206 16.2428 44.7798 15.8802 44.7798 20.0792C44.7798 22.0451 42.9802 23.0186 40.9891 23.0186C37.8685 23.0186 36.0306 21.6443 34.5182 20.2892L31.7422 23.3049C33.178 24.6791 35.5712 27.1413 40.9126 27.1413Z" fill="#010D82"/>
<path fill-rule="evenodd" clip-rule="evenodd" d="M122.661 27.1413C126.203 27.1413 128.768 25.1753 129.859 23.9538L127.371 21.5107C126.605 22.2742 125.15 23.4003 122.986 23.4003C120.222 23.4003 118.043 21.773 117.623 18.6286L129.936 18.6286C130.013 18.0942 130.051 17.4071 130.051 16.9872C130.051 12.2919 127.275 8.58911 122.144 8.58911C116.803 8.58911 113.127 12.4064 113.127 17.6934C113.108 22.904 116.764 27.1413 122.661 27.1413ZM121.895 11.9865C124.009 11.9865 125.466 13.4555 125.494 15.5557L117.771 15.5557C118.334 13.2916 119.915 11.9865 121.895 11.9865Z" fill="#010D82"/>
<path d="M24.716 12.9217L17.6707 5.84059L13.0759 10.784C11.6975 9.56247 9.85958 8.77992 7.86852 8.77992C6.52838 8.77992 5.30311 9.10439 4.21186 9.69608C5.85831 5.95511 9.64899 3.28299 14.0523 3.28299C19.6043 3.28299 24.1991 7.50112 24.716 12.9217ZM14.0523 28.0001C18.8194 28.0001 23.0504 25.6143 25.5775 22.0069L23.1844 19.6211C21.289 22.6749 17.9196 24.6981 14.0523 24.6981C12.3676 24.6981 10.7785 24.3164 9.38096 23.6102L7.16016 26.206C9.20866 27.3702 11.5443 28.0001 14.0523 28.0001ZM4.84364 19.5638C4.17357 18.4377 3.7141 17.178 3.44607 15.861C3.79067 13.7233 5.62858 12.0819 7.86852 12.0819C8.99806 12.0819 10.051 12.54 10.8168 13.2462L4.84364 19.5638ZM4.84364 24.5836L17.7664 10.6122L26.8985 19.7165C27.6643 17.9606 28.0854 16.0328 28.0854 14.0096C28.0854 6.2605 21.806 9.91821e-05 14.0523 9.91821e-05C6.29865 9.91821e-05 0 6.2605 0 14.0096C0 18.2469 1.89534 22.0642 4.84364 24.5836Z" fill="url(#paint0_linear_4301_8641)"/>
</g>
<defs>
<linearGradient id="paint0_linear_4301_8641" x1="17.6813" y1="24.6059" x2="8.42706" y2="-0.0185154" gradientUnits="userSpaceOnUse">
<stop offset="0.124409" stop-color="#000D82"/>
<stop offset="1" stop-color="#00FFE1"/>
</linearGradient>
<clipPath id="clip0_4301_8641">
<rect width="153.082" height="28" fill="white"/>
</clipPath>
</defs>
</svg>
